<?xml version="1.0" encoding="utf-8"?>
<!-- Svg Vector Icons : http://www.onlinewebfonts.com/icon -->
<!DOCTYPE svg PUBLIC "-//W3C//DTD SVG 1.1//EN" "http://www.w3.org/Graphics/SVG/1.1/DTD/svg11.dtd">
<svg version="1.1" xmlns="http://www.w3.org/2000/svg" xmlns:xlink="http://www.w3.org/1999/xlink" x="0px" y="0px" viewBox="0 0 256 256" enable-background="new 0 0 256 256" xml:space="preserve">
<metadata> Svg Vector Icons : http://www.onlinewebfonts.com/icon </metadata>
<g><g><g><path fill="#000000" d="M55.7,11.6c-4.3,4.8-7.9,15.7-7.9,24.3c0,2.7-0.2,4.9-0.4,4.9c-0.2,0-6.6-1.8-14.2-3.9c-7.6-2.2-14.9-3.9-16.2-3.9c-3.7,0-6.9,3.6-6.9,7.7c0,5.5,1.9,6.7,19.5,11.5c8.4,2.3,14.9,4.5,14.6,4.8c-0.3,0.3-7.2,2.4-15.3,4.5C11.9,66.3,10,67.4,10,72.9c0,3.8,2.2,6.7,5.8,7.6c1.6,0.4,17.4-3.5,32.2-7.9c1.1-0.4,1.3,0.1,1.3,2.9c0,1.8,0.6,5.9,1.4,9.1l1.4,5.8l-2.9,3.9c-1.6,2.1-4.3,6.5-5.9,9.6c-14.4,27.8-12.6,61.8,4.7,87.3c7.3,10.8,20.3,21.6,31,26c2.8,1.1,6.8,3.7,10,6.5c7,6.1,10.9,8.7,18.5,12.5c15.9,7.9,32.3,10.8,55.3,9.5c32.2-1.8,52.1-9,67.2-24.2c5.6-5.7,7.6-8.3,10.2-13.6c4.3-8.9,5.9-14.9,5.9-24.3c0.1-9.2-1.5-14.6-5.5-18.9c-8.6-9.6-23-5.3-30.1,8.9c-0.8,1.7-2.5,6.1-3.5,9.8c-3.4,10.9-6.9,17.2-13.5,23.7c-9.6,9.5-21.3,14.2-37.8,15.2c-7.5,0.4-23.9-0.6-30-1.9l-2.6-0.5l5.3-2.2c15.3-6,29.9-19.7,38-36c13.6-27,11.3-61.6-5.9-86.1l-3.6-5.2l1.3-6.2c0.7-3.4,1.2-7.5,1.2-9.1c0-1.5,0.2-2.8,0.4-2.8c0.2,0,7.2,1.9,15.6,4.2c16.2,4.5,18.4,4.8,21.6,1.8c3.4-3.2,2.8-10-1.2-12.1c-0.7-0.4-7.9-2.5-15.9-4.7c-8.1-2.2-14.9-4.2-15.3-4.5c-0.3-0.3,5.6-2.2,13.1-4.3c17.9-4.9,19.1-5.3,20.6-8.5c1.5-3.2,1.5-4.6-0.1-7.3c-1.4-2.4-3.9-3.9-6.6-3.9c-1,0-7.9,1.7-15.6,3.9c-7.6,2.1-14.1,3.9-14.4,3.9c-0.4,0-0.6-2.2-0.6-4.9c0-8.6-3.6-19.6-7.9-24.3c-1.5-1.6-2.2-1.8-6.9-1.4c-6.5,0.5-15,3.5-20.5,7.1c-4.2,2.8-4.2,2.8-7.8,1.8c-2.2-0.6-7.5-1-13.6-1s-11.4,0.4-13.6,1c-3.5,1.1-3.6,1.1-7.8-1.8c-5.5-3.5-14-6.5-20.5-7.1C57.8,9.8,57.2,10,55.7,11.6z"/></g></g></g>
</svg>